inDegrees=yes
name=ik_data_arm_r
DataType=double
version=3
OpenSimVersion=4.5
endheader
time	pelvis_tilt	pelvis_list	pelvis_rotation	pelvis_tx	pelvis_ty	pelvis_tz	hip_flexion_r	hip_adduction_r	hip_rotation_r	knee_angle_r	knee_angle_r_beta	ankle_angle_r	subtalar_angle_r	mtp_angle_r	hip_flexion_l	hip_adduction_l	hip_rotation_l	knee_angle_l	knee_angle_l_beta	ankle_angle_l	subtalar_angle_l	mtp_angle_l	lumbar_extension	lumbar_bending	lumbar_rotation	arm_flex_r	arm_add_r	arm_rot_r	elbow_flex_r	pro_sup_r	wrist_flex_r	wrist_dev_r	arm_flex_l	arm_add_l	arm_rot_l	elbow_flex_l	pro_sup_l	wrist_flex_l	wrist_dev_l
0	0	0	0	0	0.9399999999999999	0	0	0	0	0	0	0	0	0	0	0	0	0	0	0	0	0	0	0	0	0	0	0	0	0	0	0	0	0	0	0	0	0	0
1	0	0	0	0	0.9399999999999999	0	0	0	0	0	0	0	0	0	0	0	0	0	0	0	0	0	0	0	0	0	0	0	0	0	0	0	0	0	0	0	0	0	0
2	0	0	0	0	0.9399999999999999	0	0	0	0	0	0	0	0	0	0	0	0	0	0	0	0	0	0	0	0	0	0	0	0	0	0	0	0	0	0	0	0	0	0
3	0	0	0	0	0.9399999999999999	0	0	0	0	0	0	0	0	0	0	0	0	0	0	0	0	0	0	0	0	0	0	0	0	0	0	0	0	0	0	0	0	0	0
4	-0.875089200925299	1.523341392254058	0.7851695149291403	0	0.9399999999999999	0	43.18329032280825	-10.22491109058269	0	60.63625877178264	1.0583023616589	-5.035606155744428	0	0	43.18329032280825	-10.22491109058269	0	60.63625877178264	1.0583023616589	-5.035606155744428	0	0	0.3939172712031915	0.2626597615108252	-1.686936766883219	-0.2396313558383123	-1.69706848021936	0.5740683723139491	0.7949967464381563	45.01926600749392	0	0	0	-11.43090422245541	0	75.57698840895912	45.01926600749392	0	0
5	-0.9763321106970562	1.514677678271387	0.7688592447236863	0	0.9399999999999999	0	43.20111550055659	-10.21788947714947	0	60.63130971749663	1.058215984366749	-5.034207398794011	0	0	43.20111550055659	-10.21788947714947	0	60.63130971749663	1.058215984366749	-5.034207398794011	0	0	0.2834406066404023	0.2652434292393887	-1.681056927917783	-0.3461288838149818	-1.765949123707765	0.5726080285869648	1.444188615058285	45.01877779301683	0	0	0	-11.4492160758234	0	75.57133147068252	45.01877779301683	0	0
6	-0.9901026370352021	1.655903594250519	0.7131418230527669	0	0.9399999999999999	0	43.20125701097643	-10.21782995203828	0	60.63127057344752	1.05821530117421	-5.034195220365689	0	0	43.20125701097643	-10.21782995203828	0	60.63127057344752	1.05821530117421	-5.034195220365689	0	0	0.2729808210094998	0.4063882860637517	-1.737476831682593	-0.3604077361814183	-1.615385863503484	0.5172615952891486	1.888072856251197	45.01877373163827	0	0	0	-11.44935964524931	0	75.57128656334301	45.01877373163827	0	0
7	-1.015873066773237	1.675708051831308	0.6979037838693307	0	0.9399999999999999	0	43.23152974503554	-10.20562752094331	0	60.62293948551645	1.058069896259539	-5.031748979986129	0	0	43.23152974503554	-10.20562752094331	0	60.62293948551645	1.058069896259539	-5.031748979986129	0	0	0.232610040007055	0.4426101369966097	-1.721998719046533	-0.3948175578883217	-1.692923888708939	0.5108263056012236	2.107273492934704	45.01792967024107	0	0	0	-11.48018828767839	0	75.56167949063031	45.01792967024107	0	0
8	-0.9738685649514286	1.703440290105557	0.6947690662736891	0	0.9399999999999999	0	43.25399384971897	-10.19688884279412	0	60.61672405617539	1.057961416553113	-5.030021643988692	0	0	43.25399384971897	-10.19688884279412	0	60.61672405617539	1.057961416553113	-5.030021643988692	0	0	0.2638765708164948	0.4820447577876709	-1.704742745046308	-0.3593603247489684	-1.735780608409091	0.5049444805882427	1.884353148175775	45.01731915857315	0	0	0	-11.50325339717017	0	75.5545503416765	45.01731915857315	0	0
9	-1.004895769430028	1.724791050950018	0.6836737821987205	0	0.9399999999999999	0	43.28254865351859	-10.18626086356875	0	60.60879956377355	1.057823108069151	-5.027957627889032	0	0	43.28254865351859	-10.18626086356875	0	60.60879956377355	1.057823108069151	-5.027957627889032	0	0	0.2198109943447737	0.5155332919875872	-1.690619618756765	-0.3968872591627178	-1.814667259345836	0.4935409908944477	2.114131457161924	45.01656728206559	0	-9.571133594986865e-51	0	-11.53283523598736	0	75.54548801255183	45.01656728206559	0	-9.571133594986865e-51
10	-0.8405740028792272	1.641017766585123	0.6276151036353561	0	0.9399999999999999	0	43.28272978375541	-10.18619274463739	0	60.60874889067831	1.057822223656797	-5.027944306925249	0	0	43.28272978375541	-10.18619274463739	0	60.60874889067831	1.057822223656797	-5.027944306925249	0	0	0.3847910941186565	0.4296649306364563	-1.744730459061943	-0.2289171122375925	-1.905684072536276	0.433347705865486	1.584377619220584	45.01656248386714	0	0	0	-11.53302335015462	0	75.54543052822338	45.01656248386714	0	0
11	-0.5235450659853104	1.307726439029024	0.5274454057099585	0	0.9399999999999999	0	43.28289605410945	-10.18613014575546	0	60.60870242293256	1.057821412641638	-5.027932063497474	0	0	43.28289605410945	-10.18613014575546	0	60.60870242293256	1.057821412641638	-5.027932063497474	0	0	0.7010934293067647	0.09228759281206428	-1.840278133693033	0.09828295141663053	-2.260013063324274	0.3253375791423486	1.461244710838759	45.01655807522965	0	0	0	-11.53319590966802	0	75.54537775994432	45.01655807522965	0	0
12	-0.4168898859912066	0.8595307907442001	0.227578700217372	0	0.9399999999999999	0	43.28308160830237	-10.18606019814513	0	60.60865063078877	1.057820508698202	-5.027918380458763	0	0	43.28308160830237	-10.18606019814513	0	60.60865063078877	1.057820508698202	-5.027918380458763	0	0	0.8103696831826588	-0.3609061197847631	-2.133724007062855	0.222558882022784	-2.744797356116579	0.02831306178444355	1.869725022402628	45.01655314995683	0	0	0	-11.53338831753287	0	75.54531887172799	45.01655314995683	0	0
13	-0.3002433216711565	0.2604097819492807	0.01752728898811171	0	0.9399999999999999	0	43.28323631016666	-10.18600193206771	0	60.60860743155403	1.057819754729322	-5.027906985458026	0	0	43.28323631016666	-10.18600193206771	0	60.60860743155403	1.057819754729322	-5.027906985458026	0	0	0.9277358991990899	-0.9625461866206558	-2.337906942045085	0.3609898576532216	-3.386462484003044	-0.1826515532101637	0.1373117871742363	45.01654904640486	0	0	0	-11.53354878894019	0	75.54526977490119	45.01654904640486	0	0
14	-0.4302750016062133	-0.5555397271084503	-0.4756102089851603	0	0.9399999999999999	0	43.28332682205151	-10.18596818903558	0	60.60858194786421	1.057819309955029	-5.027900399261486	0	0	43.28332682205151	-10.18596818903558	0	60.60858194786421	1.057819309955029	-5.027900399261486	0	0	0.7993762586971314	-1.785831090653035	-2.815967486865074	0.2579788614244769	-4.283461253856094	-0.6496849998397766	0.1362603251948127	45.01654666569107	0	0	0	-11.53364323191337	0	75.5452410494362	45.01654666569107	0	0
15	-0.5954302788911761	-1.403890381197361	-1.243924345193068	0	0.9399999999999999	0	43.28340244766966	-10.18594012313681	0	60.60856057999457	1.057818937015349	-5.027894926056883	0	0	43.28340244766966	-10.18594012313681	0	60.60856057999457	1.057818937015349	-5.027894926056883	0	0	0.6332392717795258	-2.645513335563614	-3.566906607609301	0.1102298374548675	-5.225294175813524	-1.384759146913393	0.05597057195825324	45.01654468391781	0	0	0	-11.53372234313595	0	75.54521704829148	45.01654468391781	0	0
16	-0.5200229341551855	-2.219996935653403	-1.827016952408306	0	0.9399999999999999	0	43.2834881016415	-10.18590824202913	0	60.60853643687909	1.057818515638492	-5.027888705482805	0	0	43.2834881016415	-10.18590824202913	0	60.60853643687909	1.057818515638492	-5.027888705482805	0	0	0.7119775350434242	-3.465823603705283	-4.144092984376297	0.2132371941698851	-6.108944327582312	-1.968609259746996	0.0774434081068112	45.01654243388589	0	0	0	-11.53381179197712	0	75.54518986453323	45.01654243388589	0	0
